HIERARCHY
ROOT Hips
{
  OFFSET -35.2597 29.1586 114.425
  CHANNELS 6 Xposition Yposition Zposition Zrotation Xrotation Yrotation
  JOINT LeftUpLeg
  {
    OFFSET 8.64259 1.95398 -2.38835
    CHANNELS 3 Zrotation Xrotation Yrotation
    JOINT LeftLeg
    {
      OFFSET 43.7702 0 0
      CHANNELS 3 Zrotation Xrotation Yrotation
      JOINT LeftFoot
      {
        OFFSET 40.6238 0 0
        CHANNELS 3 Zrotation Xrotation Yrotation
        JOINT LeftToeBase
        {
          OFFSET 12.7242 0 0
          CHANNELS 3 Zrotation Xrotation Yrotation
          End Site
          {
            OFFSET 0 0 0
          }
        }
      }
    }
  }
  JOINT RightUpLeg
  {
    OFFSET -8.2249 1.95398 -2.59336
    CHANNELS 3 Zrotation Xrotation Yrotation
    JOINT RightLeg
    {
      OFFSET 43.5653 0 0
      CHANNELS 3 Zrotation Xrotation Yrotation
      JOINT RightFoot
      {
        OFFSET 40.6238 0 0
        CHANNELS 3 Zrotation Xrotation Yrotation
        JOINT RightToeBase
        {
          OFFSET 12.7242 0 0
          CHANNELS 3 Zrotation Xrotation Yrotation
          End Site
          {
            OFFSET 0 0 0
          }
        }
      }
    }
  }
  JOINT Spine
  {
    OFFSET 0.165834 0.87714 6.61349
    CHANNELS 3 Zrotation Xrotation Yrotation
    JOINT Spine1
    {
      OFFSET 7.38963 1.71661e-005 0
      CHANNELS 3 Zrotation Xrotation Yrotation
      JOINT Spine2
      {
        OFFSET 11.9445 1.14441e-005 0
        CHANNELS 3 Zrotation Xrotation Yrotation
        JOINT Spine3
        {
          OFFSET 14.7254 4.19617e-005 0
          CHANNELS 3 Zrotation Xrotation Yrotation
          JOINT Spine4
          {
            OFFSET 10.9679 0 0
            CHANNELS 3 Zrotation Xrotation Yrotation
            JOINT RightShoulder
            {
              OFFSET 2.46616 -1.6653 3.69651
              CHANNELS 3 Zrotation Xrotation Yrotation
              JOINT RightArm
              {
                OFFSET 13.0012 0 0
                CHANNELS 3 Zrotation Xrotation Yrotation
                JOINT RightForeArm
                {
                  OFFSET 28.7848 1.62311e-005 0
                  CHANNELS 3 Zrotation Xrotation Yrotation
                  JOINT RightHand
                  {
                    OFFSET 26.5688 1.62095e-005 0
                    CHANNELS 3 Zrotation Xrotation Yrotation
                    End Site
                    {
                      OFFSET 0 0 0
                    }
                  }
                }
              }
            }
            JOINT LeftShoulder
            {
              OFFSET 2.38034 -1.29275 -3.7523
              CHANNELS 3 Zrotation Xrotation Yrotation
              JOINT LeftArm
              {
                OFFSET 16.3182 6.07031e-005 0
                CHANNELS 3 Zrotation Xrotation Yrotation
                JOINT LeftForeArm
                {
                  OFFSET 27.0901 0 0
                  CHANNELS 3 Zrotation Xrotation Yrotation
                  JOINT LeftHand
                  {
                    OFFSET 24.5451 1.51738e-005 0
                    CHANNELS 3 Zrotation Xrotation Yrotation
                    End Site
                    {
                      OFFSET 0 0 0
                    }
                  }
                }
              }
            }
            JOINT Neck
            {
              OFFSET 5.0226 -0.0266342 0
              CHANNELS 3 Zrotation Xrotation Yrotation
              JOINT Head
              {
                OFFSET 6.69364 2.86102e-005 0
                CHANNELS 3 Zrotation Xrotation Yrotation
                End Site
                {
                  OFFSET 0 0 0
                }
              }
            }
          }
        }
      }
    }
  }
}
MOTION
Frames:	14
Frame Time:	0.0416667
-266.583 87.0987 247.139 95.3322 45.1469 100.082 -165.529 -29.581 99.3755 -7.33127 -0.661534 1.70132 82.0413 17.5181 -0.852986 40.994 0.0853371 15.7687 173.866 31.7159 105.711 -36.4329 -18.6466 7.15717 64.2363 -1.56721 -0.827784 16.6461 3.39486 4.54006 -1.47596 7.73554 -92.2173 11.3184 -3.96988 -4.02004 -0.352201 -4.14285 -3.84155 -22.8616 -2.5799 -5.02554 -2.84895 -2.5799 -5.02554 91.214 -37.9709 -101.867 34.6543 14.5928 20.3318 -3.6346 -8.72613 -4.89066 -10.4554 0.638532 -12.8189 -87.3707 -60.6469 84.3159 -28.4884 -10.5323 -20.4495 3.37115 36.3658 -4.44163 15.3823 1.36259 4.91347 -6.44769 6.69261 -3.12925 -7.43194 6.30429 11.6879 
-260.743 86.1726 240.933 96.9523 42.0567 100.467 -164.989 -24.6583 100.519 -25.7556 -0.451703 1.38959 72.8767 9.2121 -0.279716 51.2986 6.61135 16.2737 174 30.0982 108.819 -47.2057 -20.3126 5.58716 70.7316 -6.77906 -2.83585 21.7441 1.39258 4.47897 -1.04903 7.64991 -92.4967 11.4854 -3.25341 -4.64246 -0.189265 -3.45436 -4.49509 -22.6695 -1.71013 -5.40353 -2.65685 -1.71013 -5.40354 89.4846 -37.6408 -105.05 33.327 14.6363 18.8229 -3.75175 -11.5337 -4.89604 -9.41306 0.583885 -13.0797 -87.6761 -63.5612 84.3196 -28.8102 -11.2071 -12.8072 3.25938 33.9985 -4.32809 8.97546 0.639548 3.33154 -6.99563 6.95329 1.63945 -8.05746 6.20872 10.1321 
-255.733 85.8513 235.465 99.4222 41.8917 98.1006 -165.977 -13.1302 102.079 -52.1404 12.6739 2.25075 60.2286 0.202548 -0.0235115 29.7002 -4.36824 8.96718 174.377 25.1494 107.952 -52.6309 -21.1508 4.73059 76.3173 -11.5673 -5.25683 22.1648 0.517409 6.4648 -0.851965 7.77745 -92.4522 11.2387 -2.83617 -4.60359 -0.436779 -3.03583 -4.4746 -22.9141 -1.32367 -5.24141 -2.90149 -1.32365 -5.24141 89.911 -36.4989 -104.652 33.8521 13.6681 12.0917 -3.85225 -13.9194 -4.9061 -13.7598 0.729668 -11.64 -87.6129 -64.7418 84.5617 -26.2635 -12.6935 -8.91763 3.19644 32.5935 -4.26355 6.42117 1.13193 11.116 -5.32319 7.08253 5.81203 -7.55461 6.06402 8.1048 
-251.709 86.687 231.168 99.3188 43.7841 96.8957 -170.379 3.62805 100.949 -78.4672 22.3612 4.35017 57.8582 -1.79937 -0.252539 14.6046 -10.9385 5.13221 174.736 20.5552 106.59 -52.5819 -20.3675 4.12974 79.3476 -14.2966 -5.95535 22.0142 0.925627 5.47607 -0.407413 7.76694 -92.1772 11.2861 -1.82441 -4.15422 -0.38995 -2.00534 -4.07009 -22.8729 -0.49302 -4.50973 -2.8603 -0.493015 -4.50973 90.1566 -35.1895 -104.624 35.606 12.4443 6.52335 -3.72471 -10.8882 -4.89402 -16.5587 0.969775 -12.1827 -86.6017 -62.0058 85.5203 -23.1323 -14.0662 -7.60492 3.0931 30.0021 -4.16041 10.001 1.11141 6.94753 -2.55038 5.11169 5.96139 -6.57431 4.08641 6.26009 
-247.989 89.2186 227.019 99.4436 45.2509 93.0048 -174.307 19 95.7347 -92.3333 11.6351 4.55543 60.7342 0.125626 2.19646 8.25274 -14.3363 4.01224 174.808 13.9977 102.138 -47.6203 -19.4374 3.33761 79.1392 -14.0522 -4.81017 24.1814 0.0577429 5.63061 0.217367 7.84885 -91.5876 11.1613 -0.30488 -3.13027 -0.513327 -0.442274 -3.11386 -23.019 0.649523 -3.07733 -3.00636 0.649548 -3.07734 90.4348 -32.6778 -104.943 37.7798 11.1091 2.46869 -3.60443 -7.99641 -4.89032 -19.8507 0.957885 -10.9014 -86.3057 -60.8461 85.7679 -19.4761 -15.5074 -11.0477 3.18395 32.29 -4.25109 11.5817 1.47172 8.3438 -2.99931 1.69107 5.07433 -5.1483 0.979235 3.49562 
-243.936 94.1714 222.7 103.194 45.5839 85.244 -175.048 26.8161 89.2877 -91.4124 0.866619 4.28669 65.8783 3.60166 4.02458 2.12063 -17.9711 3.36999 174.641 4.65693 96.6116 -39.716 -22.3329 1.51737 68.784 -6.68514 -5.43106 29.9843 -3.04427 9.15342 0.841581 8.25165 -90.7895 10.3769 1.31506 -1.68486 -1.2945 1.23967 -1.7411 -23.83 1.7606 -1.21178 -3.81737 1.76061 -1.21178 89.1606 -33.9063 -106.917 36.2768 11.398 1.16805 -3.80015 -12.6921 -4.90026 -23.6145 1.18982 -11.1131 -86.5431 -59.2103 85.2373 -17.2858 -16.4816 -13.3284 3.13351 31.1297 -4.19727 11.8657 1.20149 5.93849 -7.31051 -1.51363 -0.143425 -3.30784 -1.55941 2.4486 
-239.622 98.9964 218.34 105.226 44.7645 79.8631 -176.686 30.2881 84.5828 -82.3415 0.354391 3.7095 69.5946 5.94186 4.07865 6.90448 -16.8298 5.93297 176.532 -0.0521199 93.6761 -35.5271 -21.2335 -2.02617 57.2473 2.24652 -1.47918 24.0306 -1.20914 9.92059 1.21004 8.53075 -90.1142 9.81792 2.36041 -0.41329 -1.85097 2.33992 -0.516826 -24.4033 2.37541 0.315633 -4.39067 2.37541 0.315626 89.2817 -32.6533 -107.156 37.6896 10.5654 -0.714979 -3.8563 -14.0171 -4.90596 -20.0325 1.81137 -15.8285 -86.5404 -55.9835 84.8015 -17.1009 -16.5729 -13.304 3.29734 34.8253 -4.36756 8.54678 0.937662 6.09397 -12.2865 -2.52544 -4.18407 -2.16565 -2.38545 -0.204283 
-235.099 102.045 213.165 104.138 40.4657 77.8603 -176.691 30.9443 81.9719 -70.6034 4.95283 2.17993 75.231 10.0342 3.15857 6.89679 -15.1261 3.86498 177.638 -1.86315 91.6727 -36.3465 -25.9336 -5.14179 54.0451 4.34041 0.735279 19.2836 1.43367 6.88455 1.63266 8.5871 -89.6109 9.69572 3.43068 0.501786 -1.97077 3.44943 0.350121 -24.5364 3.12114 1.51057 -4.52378 3.12115 1.51058 89.0978 -31.5796 -107.91 39.4551 9.53642 -2.73707 -3.90084 -15.059 -4.91138 -17.4266 1.68503 -16.6219 -86.6203 -56.9783 84.8282 -14.3933 -17.657 -10.1581 3.47513 38.4342 -4.54748 9.31096 1.13177 7.33626 -16.0193 -2.34534 -4.10203 -1.00835 -2.36263 -2.34146 
-230.936 103.527 207.924 102.023 39.356 78.5839 -179.59 31.3255 80.8237 -56.9708 5.07429 2.40612 77.9916 11.777 1.77435 11.4313 -12.3079 4.09292 175.724 -3.56365 90.6947 -28.3463 -29.315 -3.02833 53.4914 4.26597 4.34185 26.7927 0.217573 1.9969 1.65825 8.47592 -89.4162 9.91057 3.5701 0.868661 -1.75567 3.60488 0.7105 -24.3207 3.14388 1.90235 -4.30803 3.14389 1.90235 88.5774 -32.2903 -108.63 40.6495 8.68297 -4.54898 -3.98175 -16.9376 -4.92352 -19.1249 1.69076 -15.6084 -86.4146 -58.5207 85.3219 -13.4421 -17.8857 -6.475 3.42278 37.4261 -4.49413 11.4168 1.56408 9.24981 -15.7986 -2.31532 -3.99571 -2.63406 -2.30404 -1.79938 
-226.521 103.075 202.71 100.316 39.1694 79.9094 178.376 30.3678 80.4428 -42.4603 1.90326 2.78577 77.4178 11.9715 2.7191 14.3408 -8.48075 1.30631 175.071 -4.25308 91.6841 -21.8647 -20.347 -0.80316 57.747 1.53128 2.58633 22.2692 2.44228 0.974014 1.57495 8.33905 -89.428 10.1853 3.39917 0.84737 -1.4814 3.43317 0.69678 -24.0434 2.98724 1.83054 -4.03078 2.98725 1.83054 88.2171 -32.3671 -109.284 42.5756 7.67646 -5.45519 -3.94207 -16.0193 -4.91726 -20.5617 1.51318 -13.8315 -85.5437 -58.9119 86.5638 -14.9386 -17.249 -2.23507 4.21587 34.7357 -5.97902 10.7413 1.39987 8.54936 -15.505 -2.35006 -1.92718 -3.54537 -2.30024 -2.96137 
-221.991 100.758 197.602 98.4857 37.8944 80.6559 178.701 29.0813 80.4163 -28.7358 1.57677 1.30181 79.1539 13.411 -0.906975 14.7752 -13.2421 8.38049 174.714 -3.29334 91.5628 -20.733 -10.8757 0.121504 59.5751 0.878718 1.23682 25.4935 -0.575269 6.42399 1.64812 8.23661 -89.3673 10.3881 3.57299 0.944446 -1.27821 3.61108 0.786085 -23.8424 3.12385 1.97545 -3.82979 3.12385 1.97545 87.9945 -32.1336 -109.802 44.7136 6.77181 -5.44054 -3.89064 -14.8222 -4.91024 -21.3363 1.70828 -14.5551 -84.7281 -59.1621 87.7053 -18.8036 -15.9617 2.29596 5.77489 27.4955 -10.0341 13.8313 1.87981 9.58049 -14.2145 -2.34514 -0.181295 -4.34154 -2.22724 -4.6041 
-217.852 96.6566 192.237 97.4836 34.2663 79.8311 179.607 30.5991 79.9643 -22.1214 7.63219 -0.35772 75.3845 12.0022 2.74324 15.0254 -10.6909 5.03858 172.961 -4.27544 89.4126 -27.9539 -12.0322 -0.582871 70.0342 -7.34919 -4.53369 34.9916 -4.32849 7.57855 1.99988 8.2013 -89.2816 10.4554 4.31327 1.04659 -1.20867 4.35515 0.855398 -23.7875 3.79913 2.29607 -3.7748 3.79914 2.29608 87.5412 -31.2119 -111.059 46.4831 6.26264 -4.53892 -3.76878 -11.9417 -4.89706 -20.2283 1.52007 -13.9981 -84.6311 -63.6805 88.29 -16.9236 -16.7852 6.37274 7.19626 25.6588 -13.6932 14.0245 1.90287 9.43009 -13.0872 -2.40852 3.82572 -4.36172 -2.29101 -8.03041 
-213.708 92.6657 186.611 95.6904 29.6916 79.7173 179.566 33.4059 80.7655 -19.9083 12.9877 -0.632372 73.9544 11.1568 3.50454 14.0089 -12.5743 6.7499 170.708 -6.33968 84.8782 -33.1588 -15.8392 -2.27082 83.3436 -16.7101 -2.29184 34.4906 -2.36093 -0.135 2.39945 8.18656 -89.1679 10.4794 5.16132 1.19586 -1.18163 5.20892 0.96695 -23.7802 4.56294 2.69449 -3.76753 4.56294 2.69449 87.3915 -30.2688 -111.765 48.0888 5.30989 -5.44812 -3.72771 -10.9635 -4.89457 -20.6876 1.15995 -11.7935 -84.6725 -69.2495 88.7571 -13.1388 -18.0074 4.63681 5.99953 26.3783 -10.8061 13.5608 1.8618 9.5133 -8.4638 -1.90948 8.14402 -6.58341 -1.9255 -10.9569 
-207.601 90.815 180.281 92.2794 28.7841 83.0803 178.927 36.7888 83.2206 -23.5626 14.6899 0.329822 72.6577 9.10521 0.186145 11.3121 -14.3998 6.73435 171.202 -12.0153 85.0408 -27.4059 -13.0347 -3.4859 84.427 -16.7858 -0.267625 40.2417 -4.9121 0.926793 2.55096 7.83996 -89.2003 11.1767 5.44894 1.0586 -0.483089 5.49025 0.817047 -23.092 4.87842 2.65076 -3.07934 4.87841 2.65075 87.5753 -29.7387 -111.646 51.0554 3.59864 -6.67267 -3.70863 -10.5053 -4.89285 -24.2234 0.10891 -5.98168 -84.0102 -70.5935 89.6787 -11.8082 -18.1801 -0.526216 3.35811 32.0187 -4.5891 13.3848 1.85737 9.51631 -4.47557 -1.14827 8.62184 -9.93541 -1.22924 -10.1406 
